# xmcd
#
# Track frame offsets: 
#        150
#        14978
#        32648
#        49008
#        62686
#        78152
#        95738
#        110827
#        125275
#        140668
#        157727
#        175024
#        189775
#        204545
#        222040
#        238509
#        253954
#        269579
#        285659
#        303664
#        319006
#
# Disc length: 4448 seconds
#
# Revision: 0
# Processed by: cddbd v1.5.2PL0 Copyright (c) Steve Scherf et al.
# Submitted via: ExactAudioCopy v1.1
#
DISCID=31115e15
DTITLE=Various Artist - MENT - De Vlaamse Top 10 2019 - CD2
DYEAR=2019
DGENRE=Chanson
TTITLE0=De Romeo's - Beter Wordt Het Niet
TTITLE1=Laura Lynn - Met Mijn Ogen Dicht
TTITLE2=Siham Feat. Daniel Lopez - La Dura
TTITLE3=Sabien Tiels - Dans
TTITLE4=Slongs Feat. Raymond Van Het Groenewoud - Wat Je Doet Met Mij
TTITLE5=Jo Vally - Mijn Les Geleerd
TTITLE6=#LikeMe Cast - Allemaal
TTITLE7=Herbert - De Radio
TTITLE8=Luc Steeno - De Hele Zomer
TTITLE9=Lissa Lewis - Leve Het Leven
TTITLE10=Mieke - Als De Morgen Nooit Meer Komt
TTITLE11=Paco Garcia and Steven Lambert - Droomland
TTITLE12=Sammy Moore - Hou Me Vast
TTITLE13=Johan Veugelers - Een Man Van Amore
TTITLE14=Yves Segers - Vi Va Vogeltje
TTITLE15=John Leo - Doelwit
TTITLE16=Marco Kimsen - Als Ik Morgen Niet Meer Wakker Word
TTITLE17=Amaryllis Temmerman and John Terra - Geef Het Maar Toe
TTITLE18=Udo - Hier Niet Ver Vandaan
TTITLE19=Isabelle A and Koen Wauters - Nooit Meer Alleen
TTITLE20=Sasha and Davy - Blijf Geloven
EXTD=
EXTT0=
EXTT1=
EXTT2=
EXTT3=
EXTT4=
EXTT5=
EXTT6=
EXTT7=
EXTT8=
EXTT9=
EXTT10=
EXTT11=
EXTT12=
EXTT13=
EXTT14=
EXTT15=
EXTT16=
EXTT17=
EXTT18=
EXTT19=
EXTT20=
PLAYORDER=
